<?xml version="1.0" encoding="utf-8"?>
<!-- Generator: Adobe Illustrator 28.2.0, SVG Export Plug-In . SVG Version: 6.00 Build 0)  -->
<svg version="1.1" id="Layer_1" xmlns="http://www.w3.org/2000/svg" xmlns:xlink="http://www.w3.org/1999/xlink" x="0px" y="0px"
	 viewBox="0 0 347.7 110.8" style="enable-background:new 0 0 347.7 110.8;" xml:space="preserve">
<style type="text/css">
	.st0{fill:#154734;}
	.st1{fill:#FFFFFF;}
</style>
<g>
	<g>
		<path class="st0" d="M127.5,14.7c0.3,0.1,0.5,0.4,0.7,0.7c0.1,0.3,0.2,0.7,0.2,1.3v17.4c0,2.4,0.5,4.4,1.4,6
			c0.9,1.6,2.2,2.9,3.9,3.7c1.7,0.8,3.7,1.2,6,1.2c2.5,0,4.6-0.5,6.3-1.4c1.6-0.9,2.8-2.2,3.6-3.8s1.1-3.5,1.1-5.7V16.7
			c0-0.5,0.1-1,0.2-1.3c0.2-0.3,0.4-0.5,0.7-0.7c0.3-0.1,0.7-0.2,1.2-0.2l1.9-0.1v-2.5h-11.3v2.5l2.3,0.1c0.5,0,1,0.1,1.3,0.2
			c0.3,0.1,0.5,0.4,0.7,0.7s0.2,0.7,0.2,1.3V34c0,1.9-0.3,3.4-0.9,4.6c-0.6,1.2-1.5,2.1-2.5,2.7c-1.1,0.6-2.4,0.9-3.9,0.9
			c-1.6,0-3-0.3-4-1s-1.8-1.6-2.3-2.7c-0.5-1.2-0.7-2.6-0.7-4.3V16.7c0-0.5,0.1-1,0.2-1.3c0.2-0.3,0.4-0.5,0.7-0.7
			c0.3-0.1,0.7-0.2,1.3-0.2l1.9-0.1v-2.5h-13.3v2.5l1.9,0.1C126.8,14.5,127.2,14.6,127.5,14.7z"/>
		<path class="st0" d="M172.3,41c-0.2,0.3-0.4,0.5-0.7,0.7c-0.3,0.1-0.7,0.2-1.2,0.3l-0.9,0v2.2H181V42l-1.2,0c-0.6,0-1-0.1-1.3-0.3
			c-0.3-0.2-0.6-0.4-0.7-0.7c-0.2-0.3-0.2-0.8-0.2-1.4v-13c0-1.6-0.3-2.9-0.8-3.9c-0.5-1-1.2-1.8-2.2-2.3c-0.9-0.5-2-0.7-3.3-0.7
			c-1.5,0-3,0.3-4.3,1s-2.5,1.7-3.6,3v-4l-7.9,2v2.1l1.1,0.1c0.5,0.1,0.9,0.2,1.3,0.3c0.3,0.2,0.6,0.4,0.8,0.7s0.2,0.8,0.2,1.3v13.4
			c0,0.6-0.1,1.1-0.2,1.4c-0.2,0.3-0.4,0.6-0.7,0.7c-0.3,0.1-0.8,0.2-1.3,0.2l-1.4,0v2.2h11.7V42l-0.9,0c-0.5,0-0.9-0.1-1.2-0.3
			s-0.6-0.4-0.7-0.7c-0.2-0.3-0.2-0.8-0.2-1.4V25.3c0.7-0.7,1.5-1.3,2.3-1.7c0.8-0.4,1.7-0.6,2.6-0.6s1.6,0.2,2.2,0.6
			c0.6,0.4,1,0.9,1.3,1.6c0.3,0.7,0.4,1.6,0.4,2.6v11.7C172.5,40.2,172.5,40.7,172.3,41z"/>
		<path class="st0" d="M187.5,14.2c0.5,0.3,1.1,0.4,1.8,0.4s1.3-0.1,1.8-0.4c0.5-0.3,0.9-0.6,1.2-1.1c0.3-0.5,0.4-1.1,0.4-1.7
			c0-0.6-0.1-1.2-0.4-1.7c-0.3-0.5-0.7-0.9-1.2-1.1c-0.5-0.3-1.1-0.4-1.8-0.4c-0.7,0-1.3,0.1-1.8,0.4c-0.5,0.3-1,0.7-1.3,1.2
			c-0.3,0.5-0.4,1-0.4,1.7c0,0.6,0.1,1.2,0.4,1.7C186.5,13.5,186.9,13.9,187.5,14.2z"/>
		<path class="st0" d="M195.8,42l-1.4,0c-0.6,0-1-0.1-1.3-0.3c-0.3-0.2-0.6-0.4-0.7-0.7c-0.2-0.3-0.2-0.8-0.2-1.4v-20l-8.4,2.1v2.1
			l1.1,0.1c0.5,0.1,0.9,0.2,1.3,0.3c0.3,0.1,0.6,0.4,0.8,0.7c0.2,0.3,0.2,0.8,0.2,1.3v13.4c0,0.6-0.1,1.1-0.2,1.4
			c-0.2,0.3-0.4,0.6-0.7,0.7c-0.3,0.1-0.8,0.2-1.3,0.2l-1.4,0v2.2h12.3V42z"/>
		<path class="st0" d="M198.3,23.5c0.2,0.4,0.5,0.9,0.8,1.6l7.8,19.1h2.3l7.5-18.6c0.4-0.9,0.7-1.6,1-2c0.3-0.4,0.6-0.7,1-0.9
			c0.4-0.2,1-0.3,1.7-0.4v-2.2h-9.1v2.2l1.5,0.1c0.6,0,1.1,0.2,1.4,0.4s0.4,0.5,0.5,0.9s-0.1,0.9-0.4,1.5l-4.8,12.9l-4.8-13
			c-0.3-0.6-0.4-1.1-0.3-1.5c0.1-0.4,0.2-0.7,0.5-0.9c0.3-0.2,0.6-0.3,1.1-0.3l1.3-0.1v-2.2h-11.2v2.2c0.7,0,1.2,0.2,1.6,0.4
			C197.8,22.9,198.1,23.2,198.3,23.5z"/>
		<path class="st0" d="M225.3,43.2c1.5,1,3.3,1.5,5.4,1.5c1.7,0,3.1-0.3,4.3-0.9c1.2-0.6,2.2-1.5,2.9-2.5c0.7-1.1,1.2-2.4,1.5-3.8
			l-1.9-0.6c-0.2,0.8-0.6,1.5-1,2.2c-0.4,0.6-1,1.1-1.8,1.4S233,41,232,41c-1.5,0-2.6-0.4-3.5-1.1c-0.8-0.7-1.5-1.8-1.8-3.1
			c-0.4-1.3-0.5-3-0.5-5h13.5c0-2.8-0.3-5-0.8-6.8c-0.6-1.8-1.5-3.1-2.7-4c-1.2-0.9-2.9-1.3-4.9-1.3c-2.3,0-4.3,0.5-5.8,1.6
			c-1.5,1.1-2.7,2.6-3.4,4.5c-0.7,1.9-1.1,4.2-1.1,6.7c0,2.5,0.4,4.7,1.1,6.6S223.8,42.2,225.3,43.2z M228.1,23
			c0.7-0.8,1.5-1.2,2.7-1.2c1,0,1.7,0.3,2.2,0.9c0.5,0.6,0.9,1.4,1.1,2.5c0.2,1.1,0.3,2.5,0.3,4.3h-8.1c0.1-1.2,0.2-2.2,0.4-3.1
			C226.9,24.9,227.4,23.8,228.1,23z"/>
		<path class="st0" d="M254.8,42l-1.8,0c-0.5,0-1-0.1-1.3-0.3c-0.3-0.1-0.6-0.4-0.7-0.7c-0.2-0.3-0.2-0.8-0.2-1.4V28.4
			c0.6-1.2,1.4-2,2.4-2.6c1-0.6,2.2-0.9,3.6-0.9c0.3,0,0.7,0,1.1,0c0.4,0,0.8,0.1,1.3,0.2V20c-0.2,0-0.4-0.1-0.7-0.1s-0.6,0-0.9,0
			c-1.1,0-2.1,0.3-3,0.9c-0.9,0.6-1.7,1.4-2.4,2.5s-1.3,2.4-1.8,4v-7.6l-7.9,2v2.1l1.1,0.1c0.5,0.1,0.9,0.2,1.3,0.3
			c0.3,0.2,0.6,0.4,0.8,0.7s0.2,0.8,0.2,1.3v13.4c0,0.6-0.1,1.1-0.2,1.4c-0.2,0.3-0.4,0.6-0.7,0.7c-0.3,0.1-0.8,0.2-1.3,0.2l-1.4,0
			v2.2h12.8V42z"/>
		<path class="st0" d="M264.6,31.9c0.8,0.5,1.6,1,2.6,1.4l3.2,1.3c0.7,0.3,1.2,0.6,1.7,0.9c0.5,0.3,0.9,0.7,1.2,1.3s0.5,1.2,0.5,2.1
			c0,0.7-0.2,1.4-0.5,2c-0.3,0.6-0.7,1.1-1.2,1.4c-0.5,0.4-1.2,0.5-2,0.5c-0.9,0-1.8-0.3-2.5-0.8c-0.8-0.5-1.4-1.3-1.9-2.3
			s-0.8-2.2-0.9-3.6h-2.4v6.7c1,0.6,2.1,1.1,3.3,1.5c1.2,0.4,2.6,0.6,4,0.6c1.8,0,3.4-0.3,4.7-1s2.2-1.5,2.9-2.7s0.9-2.5,0.9-4
			c0-1.4-0.3-2.6-0.8-3.5c-0.5-0.9-1.1-1.6-1.8-2.1c-0.7-0.5-1.5-0.9-2.5-1.2L270,29c-0.8-0.3-1.4-0.6-1.9-0.9s-0.9-0.7-1.2-1.2
			c-0.3-0.5-0.5-1.1-0.5-1.9c0-0.6,0.1-1.2,0.4-1.7c0.3-0.5,0.6-0.9,1.1-1.1c0.5-0.3,1.1-0.4,1.7-0.4c0.8,0,1.6,0.2,2.2,0.7
			c0.6,0.5,1.2,1.2,1.6,2s0.8,1.9,1,3h2.4v-5.7c-1-0.7-2.1-1.2-3.3-1.6c-1.2-0.4-2.4-0.6-3.8-0.6c-1.7,0-3.1,0.3-4.3,0.8
			c-1.2,0.5-2.1,1.3-2.7,2.3s-0.9,2.2-0.9,3.6c0,1.3,0.3,2.5,0.8,3.4S263.8,31.4,264.6,31.9z"/>
		<path class="st0" d="M285.3,14.2c0.5,0.3,1.1,0.4,1.8,0.4s1.3-0.1,1.8-0.4c0.5-0.3,0.9-0.6,1.2-1.1c0.3-0.5,0.4-1.1,0.4-1.7
			c0-0.6-0.1-1.2-0.4-1.7c-0.3-0.5-0.7-0.9-1.2-1.1c-0.5-0.3-1.1-0.4-1.8-0.4c-0.7,0-1.3,0.1-1.8,0.4c-0.5,0.3-1,0.7-1.3,1.2
			c-0.3,0.5-0.4,1-0.4,1.7c0,0.6,0.1,1.2,0.4,1.7C284.3,13.5,284.8,13.9,285.3,14.2z"/>
		<path class="st0" d="M293.6,42l-1.4,0c-0.6,0-1-0.1-1.3-0.3c-0.3-0.2-0.6-0.4-0.7-0.7c-0.2-0.3-0.2-0.8-0.2-1.4v-20l-8.4,2.1v2.1
			l1.1,0.1c0.5,0.1,0.9,0.2,1.3,0.3c0.3,0.1,0.6,0.4,0.8,0.7c0.2,0.3,0.2,0.8,0.2,1.3v13.4c0,0.6-0.1,1.1-0.2,1.4
			c-0.2,0.3-0.4,0.6-0.7,0.7c-0.3,0.1-0.8,0.2-1.3,0.2l-1.4,0v2.2h12.3V42z"/>
		<path class="st0" d="M298.5,39c0,1.3,0.2,2.3,0.7,3.2s1.1,1.5,1.9,1.9c0.8,0.4,1.8,0.6,2.9,0.6c1,0,2-0.2,3-0.5s2.1-0.8,3.1-1.4
			l-0.6-2c-0.6,0.3-1.2,0.5-1.8,0.6c-0.6,0.2-1.1,0.2-1.5,0.2c-0.7,0-1.2-0.1-1.6-0.4c-0.4-0.2-0.7-0.6-0.8-1.1
			c-0.2-0.5-0.3-1.1-0.3-1.9V22.5h6.2v-2.4h-6.2v-7.8l-5,0.9v6.9h-3.8v2.4h3.8V39z"/>
		<path class="st0" d="M313.8,53c0.8,0.3,1.6,0.4,2.4,0.4c1.7,0,3.1-0.5,4.3-1.4c1.2-0.9,2.1-2,2.8-3.3s1.4-2.9,2.2-4.9l6.9-18.1
			c0.3-0.9,0.6-1.5,0.9-1.9s0.6-0.8,1-1c0.4-0.2,0.9-0.4,1.6-0.4v-2.2h-9.2v2.2l1.7,0c0.6,0,1.1,0.2,1.4,0.4s0.5,0.5,0.5,0.9
			s-0.1,0.9-0.3,1.5l-4.8,13.7l-4.9-13.8c-0.2-0.6-0.3-1.1-0.2-1.5c0-0.4,0.2-0.7,0.4-0.9s0.6-0.3,1.1-0.3l1.3-0.1v-2.2h-11.2v2.2
			c0.7,0,1.3,0.2,1.7,0.4c0.4,0.2,0.7,0.5,0.9,0.8c0.2,0.4,0.5,0.9,0.8,1.6l7.8,19.8c-0.4,1.1-0.8,2-1.2,2.7
			c-0.4,0.7-0.8,1.2-1.3,1.6c-0.5,0.4-1,0.6-1.6,0.6c-0.4,0-0.7-0.1-1-0.2c-0.3-0.2-0.7-0.4-1.1-0.8c-0.3-0.3-0.6-0.5-0.8-0.6
			c-0.2-0.2-0.5-0.3-0.8-0.4s-0.6-0.2-1-0.2c-0.5,0-1,0.1-1.4,0.3c-0.4,0.2-0.7,0.5-0.9,0.9c-0.2,0.4-0.3,0.8-0.3,1.3
			c0,0.8,0.2,1.4,0.7,1.9C312.4,52.4,313,52.7,313.8,53z"/>
		<path class="st0" d="M141.4,65.2c-1.5-1-3.4-1.6-5.6-1.6c-2.3,0-4.2,0.5-5.8,1.5c-1.6,1-2.7,2.5-3.5,4.4c-0.8,1.9-1.2,4.1-1.2,6.7
			c0,2.5,0.4,4.7,1.1,6.6s1.9,3.3,3.5,4.4c1.6,1,3.5,1.5,5.7,1.5c2.3,0,4.2-0.5,5.7-1.6c1.6-1,2.8-2.5,3.5-4.4
			c0.8-1.9,1.2-4.1,1.2-6.7c0-2.5-0.4-4.7-1.2-6.6C144.1,67.7,142.9,66.3,141.4,65.2z M140.2,82.4c-0.3,1.4-0.8,2.4-1.5,3.1
			c-0.7,0.7-1.6,1.1-2.7,1.1c-1.2,0-2.3-0.4-3.1-1.3c-0.8-0.9-1.4-2.2-1.8-3.8s-0.6-3.7-0.6-6.2c0-2.1,0.1-3.8,0.4-5.2
			s0.8-2.4,1.5-3.1c0.7-0.7,1.6-1.1,2.7-1.1c1.2,0,2.3,0.4,3.1,1.3c0.8,0.9,1.4,2.2,1.8,3.8c0.4,1.7,0.6,3.7,0.6,6.2
			C140.6,79.3,140.5,81,140.2,82.4z"/>
		<path class="st0" d="M163.6,51.9c-1-0.3-2-0.5-3.1-0.5c-2,0-3.7,0.5-4.9,1.5c-1.2,1-2.1,2.2-2.6,3.8s-0.8,3.3-0.8,5.3v2.2h-4.2
			v2.3h4.2v17.1c0,0.6-0.1,1.1-0.2,1.4c-0.2,0.3-0.4,0.6-0.7,0.7c-0.3,0.1-0.8,0.2-1.3,0.2l-1.4,0v2.2h13.2v-2.2l-2.3,0
			c-0.6,0-1-0.1-1.3-0.3c-0.3-0.1-0.6-0.4-0.7-0.7c-0.2-0.3-0.2-0.8-0.2-1.4V66.5h6.2v-2.3h-6.2V60c0-1.3,0.1-2.4,0.2-3.3
			s0.4-1.6,0.7-2.2s0.8-0.9,1.5-0.9c0.3,0,0.7,0.1,0.9,0.2c0.3,0.1,0.5,0.3,0.7,0.6c0.2,0.2,0.4,0.6,0.6,1c0.3,0.5,0.5,0.9,0.7,1.2
			c0.2,0.3,0.5,0.6,0.8,0.8c0.4,0.2,0.8,0.3,1.3,0.3c0.7,0,1.3-0.2,1.7-0.6c0.4-0.4,0.6-1,0.6-1.7c0-0.8-0.3-1.5-0.9-2.1
			C165.3,52.7,164.6,52.2,163.6,51.9z"/>
		<path class="st0" d="M204.3,58.5V56h-10.1v2.5l1.8,0.1c0.7,0,1.2,0.2,1.6,0.4s0.5,0.6,0.6,1c0,0.5-0.1,1-0.3,1.7l-6.5,18.7
			l-6.3-18.8c-0.2-0.7-0.3-1.3-0.3-1.7c0-0.4,0.2-0.8,0.5-1c0.3-0.2,0.7-0.3,1.3-0.3l1.5-0.1V56h-12v2.5c0.7,0,1.2,0.1,1.7,0.4
			c0.4,0.2,0.8,0.5,1,0.9c0.2,0.4,0.5,0.9,0.7,1.6l9.4,26.9h2.5l9.2-26.2c0.4-0.9,0.7-1.7,1-2.1c0.3-0.5,0.6-0.8,1-1.1
			C203,58.6,203.6,58.5,204.3,58.5z"/>
		<path class="st0" d="M220.1,69c-0.6-1.8-1.5-3.1-2.7-4c-1.2-0.9-2.9-1.3-4.9-1.3c-2.3,0-4.3,0.5-5.8,1.6c-1.5,1.1-2.7,2.6-3.4,4.5
			c-0.7,1.9-1.1,4.2-1.1,6.7c0,2.5,0.4,4.7,1.1,6.6s1.8,3.2,3.3,4.2c1.5,1,3.3,1.5,5.4,1.5c1.7,0,3.1-0.3,4.3-0.9
			c1.2-0.6,2.2-1.5,2.9-2.5c0.7-1.1,1.2-2.4,1.5-3.8l-1.9-0.6c-0.2,0.8-0.6,1.5-1,2.2c-0.4,0.6-1,1.1-1.8,1.4s-1.6,0.5-2.7,0.5
			c-1.5,0-2.6-0.4-3.5-1.1c-0.8-0.7-1.5-1.8-1.8-3.1c-0.4-1.3-0.5-3-0.5-5h13.5C220.9,73,220.7,70.7,220.1,69z M207.5,73.5
			c0.1-1.2,0.2-2.2,0.4-3.1c0.3-1.4,0.8-2.6,1.5-3.4c0.7-0.8,1.5-1.2,2.7-1.2c1,0,1.7,0.3,2.2,0.9c0.5,0.6,0.9,1.4,1.1,2.5
			c0.2,1.1,0.3,2.5,0.3,4.3H207.5z"/>
		<path class="st0" d="M238.7,63.9c-1.1,0-2.1,0.3-3,0.9c-0.9,0.6-1.7,1.4-2.4,2.5s-1.3,2.4-1.8,4v-7.6l-7.9,2v2.1l1.1,0.1
			c0.5,0.1,0.9,0.2,1.3,0.3c0.3,0.2,0.6,0.4,0.8,0.7s0.2,0.8,0.2,1.3v13.4c0,0.6-0.1,1.1-0.2,1.4c-0.2,0.3-0.4,0.6-0.7,0.7
			c-0.3,0.1-0.8,0.2-1.3,0.2l-1.4,0v2.2h12.8v-2.2l-1.8,0c-0.5,0-1-0.1-1.3-0.3c-0.3-0.1-0.6-0.4-0.7-0.7c-0.2-0.3-0.2-0.8-0.2-1.4
			V72.5c0.6-1.2,1.4-2,2.4-2.6c1-0.6,2.2-0.9,3.6-0.9c0.3,0,0.7,0,1.1,0c0.4,0,0.8,0.1,1.3,0.2V64c-0.2,0-0.4-0.1-0.7-0.1
			S239,63.9,238.7,63.9z"/>
		<path class="st0" d="M279,85.8c-0.3-0.2-0.6-0.4-0.7-0.7c-0.2-0.3-0.2-0.8-0.2-1.4V70.7c0-1.6-0.2-2.9-0.7-4
			c-0.5-1-1.2-1.8-2.1-2.3c-0.9-0.5-2-0.7-3.3-0.7c-1.5,0-2.8,0.3-4.1,1c-1.3,0.7-2.4,1.6-3.5,3c-0.4-1.4-1.1-2.4-2.1-3
			c-1-0.6-2.2-1-3.6-1c-1.5,0-2.8,0.3-4.1,1s-2.5,1.7-3.5,3v-4l-7.9,2v2.1l1.1,0.1c0.5,0.1,0.9,0.2,1.3,0.3c0.3,0.2,0.6,0.4,0.8,0.7
			s0.2,0.8,0.2,1.3v13.4c0,0.6-0.1,1.1-0.2,1.4c-0.2,0.3-0.4,0.6-0.7,0.7c-0.3,0.1-0.8,0.2-1.3,0.2l-1.4,0v2.2h11.7v-2.2l-0.9,0
			c-0.5,0-0.9-0.1-1.3-0.3s-0.5-0.4-0.7-0.7c-0.2-0.3-0.2-0.8-0.2-1.4V69.3c0.8-0.8,1.5-1.3,2.3-1.7c0.8-0.3,1.6-0.5,2.3-0.5
			c0.9,0,1.6,0.2,2.2,0.6s1,0.9,1.2,1.7c0.2,0.7,0.3,1.6,0.3,2.6v11.6c0,0.6-0.1,1.1-0.2,1.4c-0.2,0.3-0.4,0.5-0.7,0.7
			s-0.7,0.2-1.2,0.3l-0.9,0v2.2h11.1v-2.2l-0.9,0c-0.5,0-1-0.1-1.3-0.3c-0.3-0.1-0.5-0.4-0.7-0.7c-0.2-0.3-0.2-0.8-0.2-1.4V69.3
			c0.7-0.8,1.5-1.3,2.3-1.7c0.8-0.3,1.6-0.5,2.4-0.5c0.9,0,1.6,0.2,2.2,0.6c0.5,0.4,0.9,0.9,1.2,1.7c0.2,0.7,0.3,1.6,0.3,2.6v11.6
			c0,0.6-0.1,1.1-0.3,1.4c-0.2,0.3-0.4,0.5-0.7,0.7c-0.3,0.1-0.7,0.2-1.3,0.3l-0.9,0v2.2h11.6v-2.2l-1.3,0
			C279.7,86,279.3,85.9,279,85.8z"/>
		<path class="st0" d="M299.5,65.2c-1.5-1-3.4-1.6-5.6-1.6c-2.3,0-4.2,0.5-5.8,1.5s-2.7,2.5-3.5,4.4c-0.8,1.9-1.2,4.1-1.2,6.7
			c0,2.5,0.4,4.7,1.1,6.6c0.8,1.9,1.9,3.3,3.5,4.4c1.6,1,3.5,1.5,5.7,1.5c2.3,0,4.2-0.5,5.7-1.6c1.6-1,2.8-2.5,3.5-4.4
			c0.8-1.9,1.2-4.1,1.2-6.7c0-2.5-0.4-4.7-1.2-6.6C302.2,67.7,301.1,66.3,299.5,65.2z M298.4,82.4c-0.3,1.4-0.8,2.4-1.5,3.1
			c-0.7,0.7-1.6,1.1-2.7,1.1c-1.2,0-2.3-0.4-3.1-1.3s-1.4-2.2-1.8-3.8s-0.6-3.7-0.6-6.2c0-2.1,0.1-3.8,0.5-5.2s0.8-2.4,1.5-3.1
			c0.7-0.7,1.6-1.1,2.7-1.1c1.2,0,2.3,0.4,3.1,1.3c0.8,0.9,1.4,2.2,1.8,3.8c0.4,1.7,0.6,3.7,0.6,6.2C298.8,79.3,298.7,81,298.4,82.4
			z"/>
		<path class="st0" d="M329.6,85.8c-0.3-0.2-0.6-0.4-0.7-0.7c-0.2-0.3-0.2-0.8-0.2-1.4v-13c0-1.6-0.3-2.9-0.8-3.9
			c-0.5-1-1.2-1.8-2.2-2.3c-0.9-0.5-2-0.7-3.3-0.7c-1.5,0-3,0.3-4.3,1s-2.5,1.7-3.6,3v-4l-7.9,2v2.1l1.1,0.1
			c0.5,0.1,0.9,0.2,1.3,0.3c0.3,0.2,0.6,0.4,0.8,0.7s0.2,0.8,0.2,1.3v13.4c0,0.6-0.1,1.1-0.2,1.4c-0.2,0.3-0.4,0.6-0.7,0.7
			c-0.3,0.1-0.8,0.2-1.3,0.2l-1.4,0v2.2H318v-2.2l-0.9,0c-0.5,0-0.9-0.1-1.2-0.3s-0.6-0.4-0.7-0.7c-0.2-0.3-0.2-0.8-0.2-1.4V69.3
			c0.7-0.7,1.5-1.3,2.3-1.7c0.8-0.4,1.7-0.6,2.6-0.6s1.6,0.2,2.2,0.6c0.6,0.4,1,0.9,1.3,1.6c0.3,0.7,0.4,1.6,0.4,2.6v11.7
			c0,0.6-0.1,1.1-0.3,1.4c-0.2,0.3-0.4,0.5-0.7,0.7c-0.3,0.1-0.7,0.2-1.2,0.3l-0.9,0v2.2h11.6v-2.2l-1.2,0
			C330.4,86,329.9,85.9,329.6,85.8z"/>
		<path class="st0" d="M347.1,85c-0.6,0.3-1.2,0.5-1.8,0.6c-0.6,0.2-1.1,0.2-1.5,0.2c-0.7,0-1.2-0.1-1.6-0.4
			c-0.4-0.2-0.7-0.6-0.8-1.1c-0.2-0.5-0.3-1.1-0.3-1.9V66.6h6.2v-2.4h-6.2v-7.8l-5,0.9v6.9h-3.8v2.4h3.8v16.5c0,1.3,0.2,2.3,0.7,3.2
			s1.1,1.5,1.9,1.9c0.8,0.4,1.8,0.6,2.9,0.6c1,0,2-0.2,3-0.5s2.1-0.8,3.1-1.4L347.1,85z"/>
	</g>
	<path class="st0" d="M0,0v42.4c0,14.1,7,28.7,20.8,43.4c13.3,14.1,27.7,22.8,30.4,24.4l1,0.6l1-0.6c2.8-1.6,17.2-10.2,30.4-24.4
		c13.8-14.7,20.8-29.3,20.8-43.4V0H0z M81.5,28.9h-5.6L62.4,68.1h3.9v11.5H38.5V68.1h3.9L28.9,28.9h-5.6V17.4h21v11.5h-3.9L52.4,64
		l12.1-35.1h-3.9V17.4h21V28.9z"/>
</g>
</svg>
